<?xml version="1.0" standalone="no"?>
<!DOCTYPE svg PUBLIC "-//W3C//DTD SVG 20010904//EN"
 "http://www.w3.org/TR/2001/REC-SVG-20010904/DTD/svg10.dtd">
<svg version="1.0" xmlns="http://www.w3.org/2000/svg"
 width="226.000000pt" height="226.000000pt" viewBox="0 0 226.000000 226.000000"
 preserveAspectRatio="xMidYMid meet">

<g transform="translate(0.000000,226.000000) scale(0.100000,-0.100000)"
fill="#000000" stroke="none">
<path d="M2119 1699 c-24 -26 -79 -126 -79 -144 0 -2 -25 -56 -55 -119 -60
-126 -78 -144 -127 -127 -92 32 -180 -8 -336 -154 -126 -118 -162 -130 -162
-55 0 54 21 93 91 165 87 91 108 115 150 179 34 51 39 67 39 116 0 54 -2 58
-29 70 -70 29 -139 -23 -208 -156 -22 -43 -53 -117 -68 -164 -24 -73 -35 -92
-80 -136 -67 -66 -136 -113 -177 -120 l-33 -7 40 44 c22 24 43 46 46 49 3 3
11 26 17 51 16 62 1 105 -37 114 -80 17 -161 -83 -161 -201 0 -47 -18 -68 -66
-78 -48 -11 -62 12 -42 73 17 55 9 91 -22 91 -23 0 -22 1 -123 -135 -41 -55
-94 -120 -117 -145 -48 -52 -62 -80 -48 -97 21 -26 76 -6 100 35 9 15 25 37
35 49 10 11 33 40 52 63 l34 41 26 -25 c32 -31 89 -35 152 -10 35 14 46 15 79
4 52 -17 106 3 199 75 38 29 72 51 75 48 3 -4 6 -19 6 -35 0 -31 16 -68 34
-80 20 -14 77 -8 114 11 20 11 60 40 87 65 l50 45 17 -33 c31 -60 106 -81 182
-50 21 8 21 10 -10 -79 -20 -59 -8 -100 28 -95 23 3 32 21 98 198 41 110 29
85 175 383 80 165 124 265 120 277 -10 32 -35 32 -66 -1z m-549 -166 c-1 -36
-132 -203 -144 -184 -14 22 98 190 127 191 9 0 17 -3 17 -7z m276 -309 c15
-58 -59 -142 -133 -150 -45 -6 -58 2 -66 37 -14 56 78 138 155 139 32 0 39 -4
44 -26z m-764 -25 c-3 -30 -35 -74 -53 -74 -16 0 -14 27 4 65 22 46 54 52 49
9z"/>
<path d="M955 1661 c-104 -43 -226 -104 -305 -150 -62 -37 -193 -132 -198
-143 -2 -5 -10 -8 -18 -8 -9 0 -14 11 -14 33 -1 33 -19 67 -37 67 -24 0 -43
-38 -43 -86 0 -79 -24 -143 -75 -199 -136 -149 -213 -329 -203 -474 11 -146
96 -218 168 -141 29 31 62 123 101 283 26 103 34 112 159 152 99 32 110 40
110 70 0 41 -28 42 -148 3 -35 -11 -66 -18 -69 -15 -8 9 18 119 37 157 60 116
369 319 588 385 99 31 112 39 112 70 0 47 -46 46 -165 -4z m-656 -588 c0 -10
-7 -52 -15 -93 -8 -41 -17 -88 -20 -105 -5 -33 -18 -83 -42 -160 -16 -54 -37
-85 -58 -85 -22 0 -35 72 -25 141 13 95 96 289 122 289 5 0 9 7 9 15 0 8 7 15
15 15 8 0 15 -8 14 -17z"/>
<path d="M885 1404 c-24 -25 -55 -90 -55 -119 0 -18 5 -25 19 -25 37 0 53 13
77 66 28 62 30 80 8 88 -24 9 -31 8 -49 -10z"/>
<path d="M1395 850 c-340 -48 -669 -127 -830 -200 -11 -5 -47 -18 -80 -30 -70
-25 -85 -36 -85 -61 0 -36 55 -33 145 7 210 93 409 143 805 200 254 36 286 46
264 82 -15 23 -63 24 -219 2z"/>
</g>
</svg>
